<?xml version="1.0" standalone="no"?>
<!DOCTYPE svg PUBLIC "-//W3C//DTD SVG 20010904//EN"
 "http://www.w3.org/TR/2001/REC-SVG-20010904/DTD/svg10.dtd">
<svg version="1.0" xmlns="http://www.w3.org/2000/svg"
 width="461.000000pt" height="78.000000pt" viewBox="0 0 461.000000 78.000000"
 preserveAspectRatio="xMidYMid meet">

<g transform="translate(0.000000,78.000000) scale(0.100000,-0.100000)"
fill="#000000" stroke="none">
<path d="M951 626 c-8 -9 -11 -82 -9 -241 3 -204 5 -229 21 -239 12 -8 22 -8
35 0 15 10 17 35 20 239 2 235 0 255 -38 255 -10 0 -23 -6 -29 -14z"/>
<path d="M1131 626 c-8 -9 -11 -82 -9 -241 3 -204 5 -229 21 -239 12 -8 22 -8
35 0 15 10 17 35 20 239 2 235 0 255 -38 255 -10 0 -23 -6 -29 -14z"/>
<path d="M2202 627 c-50 -16 -92 -69 -92 -117 0 -89 37 -118 197 -160 52 -13
73 -33 73 -70 0 -57 -87 -90 -148 -56 -13 7 -34 30 -46 52 -18 32 -27 39 -51
39 -27 0 -30 -3 -33 -37 -3 -30 3 -44 32 -76 44 -48 103 -67 182 -59 104 11
159 64 159 154 0 50 -3 57 -36 87 -26 24 -58 39 -120 55 -88 24 -104 32 -120
63 -15 28 30 68 76 68 47 0 69 -12 95 -55 15 -24 29 -35 45 -35 46 0 55 59 16
104 -42 48 -149 69 -229 43z"/>
<path d="M4060 630 c-12 -8 -16 -45 -18 -212 -4 -239 -1 -265 34 -274 44 -11
54 9 54 111 0 135 19 175 84 175 44 0 56 -32 56 -155 0 -114 6 -135 41 -135
40 0 49 26 49 147 0 131 -13 174 -63 200 -38 19 -100 12 -139 -17 l-28 -21 0
84 c0 84 -9 107 -39 107 -9 0 -23 -5 -31 -10z"/>
<path d="M106 608 c-13 -19 -16 -58 -16 -223 0 -213 6 -245 50 -245 38 0 50
27 50 115 l0 83 83 4 c45 2 95 10 112 18 99 50 100 206 1 251 -32 14 -66 19
-153 19 -104 0 -113 -1 -127 -22z m240 -73 c15 -20 19 -73 6 -91 -14 -22 -52
-34 -106 -34 l-56 0 0 76 0 76 71 -4 c55 -3 74 -8 85 -23z"/>
<path d="M1726 614 c-10 -10 -16 -33 -16 -62 0 -39 -4 -49 -22 -57 -13 -6 -23
-19 -23 -30 0 -11 10 -24 23 -30 21 -9 22 -16 22 -105 0 -118 12 -163 46 -178
63 -29 164 3 138 44 -7 12 -24 18 -50 18 l-39 1 -3 108 c-3 106 -2 107 20 107
34 0 50 14 46 41 -2 19 -10 25 -35 27 -33 3 -33 4 -33 56 0 28 -5 57 -12 64
-17 17 -44 15 -62 -4z"/>
<path d="M595 482 c-46 -22 -73 -65 -54 -88 18 -21 38 -17 76 16 43 38 103 42
127 8 9 -12 16 -26 16 -30 0 -7 -44 -21 -149 -48 -79 -20 -110 -77 -80 -144
14 -29 64 -56 106 -56 16 0 52 11 79 25 l49 25 18 -25 c21 -28 48 -32 67 -10
10 12 10 25 1 59 -6 25 -11 81 -11 125 0 128 -21 152 -135 158 -54 3 -79 -1
-110 -15z m162 -199 c-11 -65 -74 -101 -128 -73 -23 13 -25 52 -4 70 12 10 93
34 129 39 5 1 6 -16 3 -36z"/>
<path d="M1370 478 c-119 -61 -120 -255 0 -316 100 -50 240 -5 240 77 0 26
-41 29 -61 5 -18 -22 -64 -44 -93 -44 -32 0 -73 37 -82 73 l-6 27 110 0 c130
0 148 9 138 69 -17 107 -142 163 -246 109z m135 -63 c14 -13 25 -33 25 -45 0
-18 -6 -20 -80 -20 -86 0 -89 3 -65 50 24 47 81 55 120 15z"/>
<path d="M2630 478 c-119 -61 -120 -255 0 -316 100 -50 240 -5 240 77 0 26
-41 29 -61 5 -18 -22 -64 -44 -93 -44 -32 0 -73 37 -82 73 l-6 27 110 0 c130
0 148 9 138 69 -17 107 -142 163 -246 109z m135 -63 c14 -13 25 -33 25 -45 0
-18 -6 -20 -80 -20 -86 0 -89 3 -65 50 24 47 81 55 120 15z"/>
<path d="M3015 482 c-46 -22 -73 -65 -54 -88 18 -21 38 -17 76 16 43 38 103
42 127 8 9 -12 16 -26 16 -30 0 -7 -44 -21 -149 -48 -79 -20 -110 -77 -80
-144 14 -29 64 -56 106 -56 16 0 52 11 79 25 l49 25 18 -25 c21 -28 48 -32 67
-10 10 12 10 25 1 59 -6 25 -11 81 -11 125 0 128 -21 152 -135 158 -54 3 -79
-1 -110 -15z m162 -199 c-11 -65 -74 -101 -128 -73 -23 13 -25 52 -4 70 12 10
93 34 129 39 5 1 6 -16 3 -36z"/>
<path d="M3371 486 c-8 -9 -11 -64 -9 -171 3 -138 5 -159 21 -169 12 -8 22 -8
35 0 14 9 18 32 24 118 4 74 12 115 23 133 16 23 21 25 65 19 53 -7 76 8 66
42 -14 44 -95 55 -130 17 l-23 -25 -11 25 c-13 27 -43 33 -61 11z"/>
<path d="M3720 478 c-105 -53 -122 -214 -32 -290 58 -49 176 -49 233 -1 42 36
54 70 33 94 -23 26 -28 25 -73 -21 -50 -51 -89 -54 -132 -11 -24 24 -29 38
-29 76 0 38 5 52 29 76 42 41 80 39 132 -8 32 -29 44 -35 57 -26 44 27 4 100
-66 121 -58 18 -103 15 -152 -10z"/>
</g>
</svg>
